<?xml version="1.0" encoding="UTF-8" standalone="no"?>
<svg
   height="11.490909"
   width="16"
   version="1.1"
   id="svg27"
   sodipodi:docname="clload.svg"
   inkscape:version="1.1.2 (b8e25be833, 2022-02-05)"
   xmlns:inkscape="http://www.inkscape.org/namespaces/inkscape"
   xmlns:sodipodi="http://sodipodi.sourceforge.net/DTD/sodipodi-0.dtd"
   xmlns="http://www.w3.org/2000/svg"
   xmlns:svg="http://www.w3.org/2000/svg">
  <defs
     id="defs31" />
  <sodipodi:namedview
     id="namedview29"
     pagecolor="#ffffff"
     bordercolor="#666666"
     borderopacity="1.0"
     inkscape:pageshadow="2"
     inkscape:pageopacity="0.0"
     inkscape:pagecheckerboard="0"
     showgrid="false"
     fit-margin-top="0"
     fit-margin-left="0"
     fit-margin-right="0"
     fit-margin-bottom="0"
     inkscape:zoom="23.520833"
     inkscape:cx="22.001771"
     inkscape:cy="15.581931"
     inkscape:window-width="2560"
     inkscape:window-height="1351"
     inkscape:window-x="-9"
     inkscape:window-y="-9"
     inkscape:window-maximized="1"
     inkscape:current-layer="svg27" />
  <path
     d="m 3.8363636,11.490909 q -1.6,0 -2.7181818,-1.118182 Q 0,9.254545 0,7.654545 q 0,-1.436363 0.9181818,-2.5 0.9181818,-1.063636 2.3,-1.281818 Q 3.4909091,2.345455 4.7090909,1.1727273 5.9272727,0 7.4727273,0 7.9090909,0 8.236364,0.2454545 8.563636,0.4909091 8.563636,0.9090909 V 6.254545 L 10.072727,4.745455 10.854545,5.527273 8.018182,8.363636 5.1818182,5.527273 5.9636364,4.745455 7.4727273,6.254545 V 1 Q 5.9090909,1.2 5.0181818,2.372727 4.1272727,3.545455 4.1272727,4.909091 H 3.7818182 q -1.1090909,0 -1.9,0.781818 -0.7909091,0.781818 -0.7909091,1.963636 0,1.181819 0.8181818,1.963637 Q 2.7272727,10.4 3.8363636,10.4 h 9.0909094 q 0.818182,0 1.4,-0.581818 0.581818,-0.581818 0.581818,-1.4 0,-0.818182 -0.581818,-1.4 -0.581818,-0.581818 -1.4,-0.581818 H 11.781818 V 4.909091 q 0,-1.236364 -0.6,-2.136364 -0.6,-0.9 -1.545454,-1.4272725 V 0.1636364 Q 11.109091,0.6909091 11.990909,2 12.872727,3.309091 12.872727,4.909091 V 5.345455 Q 14.181818,5.309095 15.090909,6.181818 16,7.054545 16,8.418182 q 0,1.254545 -0.909091,2.163636 -0.909091,0.909091 -2.163636,0.909091 z M 8,5.181818 q 0,0 0,0 0,0 0,0 0,0 0,0 0,0 0,0 0,0 0,0 0,0 0,0 0,0 0,0 0,0 0,0 0,0 0,0 0,0 0,0 0,0 0,0 0,0 0,0 0,0 0,0 0,0 0,0 0,0 0,0 0,0 0,0 z"
     id="path25"
     style="stroke-width:0.363636" />
</svg>
