<?xml version="1.0" encoding="UTF-8" standalone="no"?>
<svg
   height="16"
   width="13.859459"
   version="1.1"
   id="svg55"
   sodipodi:docname="restartico.svg"
   inkscape:version="1.1.2 (b8e25be833, 2022-02-05)"
   xmlns:inkscape="http://www.inkscape.org/namespaces/inkscape"
   xmlns:sodipodi="http://sodipodi.sourceforge.net/DTD/sodipodi-0.dtd"
   xmlns="http://www.w3.org/2000/svg"
   xmlns:svg="http://www.w3.org/2000/svg">
  <defs
     id="defs59" />
  <sodipodi:namedview
     id="namedview57"
     pagecolor="#ffffff"
     bordercolor="#666666"
     borderopacity="1.0"
     inkscape:pageshadow="2"
     inkscape:pageopacity="0.0"
     inkscape:pagecheckerboard="0"
     showgrid="false"
     fit-margin-top="0"
     fit-margin-left="0"
     fit-margin-right="0"
     fit-margin-bottom="0"
     inkscape:zoom="23.520833"
     inkscape:cx="2.5296723"
     inkscape:cy="12.308237"
     inkscape:window-width="2560"
     inkscape:window-height="1351"
     inkscape:window-x="-9"
     inkscape:window-y="-9"
     inkscape:window-maximized="1"
     inkscape:current-layer="svg55" />
  <path
     d="M 6.291892,16 Q 3.632432,15.783784 1.8162162,13.816216 0,11.848649 0,9.145946 0,7.481081 0.7675676,6.010811 1.5351351,4.5405405 2.918919,3.6108108 l 0.92973,0.9297297 Q 2.637838,5.254054 1.9675676,6.497297 1.2972973,7.740541 1.2972973,9.145946 q 0,2.162162 1.4270267,3.74054 1.427027,1.578379 3.567568,1.816217 z m 1.297297,0 v -1.297297 q 2.162162,-0.25946 3.567568,-1.827027 1.405405,-1.567568 1.405405,-3.72973 0,-2.356757 -1.632432,-3.989189 Q 9.297297,3.5243243 6.940541,3.5243243 H 6.508108 L 7.805405,4.8216216 6.875676,5.751351 4,2.8756757 6.875676,0 7.805405,0.9297297 6.508108,2.227027 h 0.432433 q 2.897297,0 4.908108,2.0216216 2.01081,2.0216214 2.01081,4.8972974 0,2.702703 -1.805405,4.67027 Q 10.248649,15.783784 7.589189,16 Z"
     id="path53"
     style="stroke-width:0.432432" />
</svg>
