<?xml version="1.0" encoding="UTF-8" standalone="no"?>
<svg
   height="16"
   width="14.42"
   version="1.1"
   id="svg19"
   sodipodi:docname="shareico.svg"
   inkscape:version="1.1.2 (b8e25be833, 2022-02-05)"
   xmlns:inkscape="http://www.inkscape.org/namespaces/inkscape"
   xmlns:sodipodi="http://sodipodi.sourceforge.net/DTD/sodipodi-0.dtd"
   xmlns="http://www.w3.org/2000/svg"
   xmlns:svg="http://www.w3.org/2000/svg">
  <defs
     id="defs23" />
  <sodipodi:namedview
     id="namedview21"
     pagecolor="#ffffff"
     bordercolor="#666666"
     borderopacity="1.0"
     inkscape:pageshadow="2"
     inkscape:pageopacity="0.0"
     inkscape:pagecheckerboard="0"
     showgrid="false"
     fit-margin-top="0"
     fit-margin-left="0"
     fit-margin-right="0"
     fit-margin-bottom="0"
     inkscape:zoom="23.520833"
     inkscape:cx="18.005314"
     inkscape:cy="20.003543"
     inkscape:window-width="2560"
     inkscape:window-height="1351"
     inkscape:window-x="-9"
     inkscape:window-y="-9"
     inkscape:window-maximized="1"
     inkscape:current-layer="svg19" />
  <path
     d="M 12.14,16 Q 11.2,16 10.53,15.33 9.86,14.66 9.86,13.72 9.86,13.58 9.89,13.39 9.92,13.2 9.98,13.04 L 3.92,9.52 Q 3.62,9.86 3.18,10.07 2.74,10.28 2.28,10.28 1.34,10.28 0.67,9.61 0,8.94 0,8 0,7.04 0.67,6.38 1.34,5.72 2.28,5.72 2.74,5.72 3.16,5.9 3.58,6.08 3.92,6.42 L 9.98,2.94 Q 9.92,2.8 9.89,2.62 9.86,2.44 9.86,2.28 9.86,1.32 10.53,0.66 11.2,0 12.14,0 q 0.96,0 1.62,0.66 0.66,0.66 0.66,1.62 0,0.94 -0.66,1.61 -0.66,0.67 -1.62,0.67 -0.46,0 -0.89,-0.15 Q 10.82,4.26 10.52,3.92 L 4.46,7.28 Q 4.5,7.44 4.53,7.65 4.56,7.86 4.56,8 4.56,8.14 4.53,8.3 4.5,8.46 4.46,8.62 l 6.06,3.44 q 0.3,-0.28 0.7,-0.45 0.4,-0.17 0.92,-0.17 0.96,0 1.62,0.66 0.66,0.66 0.66,1.62 0,0.94 -0.66,1.61 Q 13.1,16 12.14,16 Z m 0,-12.64 q 0.46,0 0.77,-0.31 0.31,-0.31 0.31,-0.77 0,-0.46 -0.31,-0.77 Q 12.6,1.2 12.14,1.2 q -0.46,0 -0.77,0.31 -0.31,0.31 -0.31,0.77 0,0.46 0.31,0.77 0.31,0.31 0.77,0.31 z M 2.28,9.08 Q 2.74,9.08 3.05,8.77 3.36,8.46 3.36,8 3.36,7.54 3.05,7.23 2.74,6.92 2.28,6.92 1.82,6.92 1.51,7.23 1.2,7.54 1.2,8 q 0,0.46 0.31,0.77 0.31,0.31 0.77,0.31 z m 9.86,5.72 q 0.46,0 0.77,-0.31 0.31,-0.31 0.31,-0.77 0,-0.46 -0.31,-0.77 -0.31,-0.31 -0.77,-0.31 -0.46,0 -0.77,0.31 -0.31,0.31 -0.31,0.77 0,0.46 0.31,0.77 0.31,0.31 0.77,0.31 z m 0,-12.52 q 0,0 0,0 0,0 0,0 0,0 0,0 0,0 0,0 0,0 0,0 0,0 0,0 0,0 0,0 0,0 0,0 z M 2.28,8 q 0,0 0,0 0,0 0,0 0,0 0,0 0,0 0,0 0,0 0,0 0,0 0,0 0,0 0,0 0,0 0,0 z m 9.86,5.72 q 0,0 0,0 0,0 0,0 0,0 0,0 0,0 0,0 0,0 0,0 0,0 0,0 0,0 0,0 0,0 0,0 z"
     id="path17"
     style="stroke-width:0.4" />
</svg>
